ply
format ascii 1.0
element vertex 10
property float x
property float y
property float z
property uchar diffuse_red
property uchar diffuse_green
property uchar diffuse_blue
end_header
-0.14957 -0.0590845 1.07229 0 255 0
-1.40244 0.0361327 1.62325 0 255 0
-0.517688 -0.0267431 1.38435 255 0 255
-0.904445 -1.07335e-008 1.45788 255 0 255
-1.87388 0.00312488 1.62652 255 0 255
-2.24578 -0.00155943 1.64979 0 255 0
-2.63798 -1.12199e-008 1.66082 255 0 255
-3.22904 -0.0515749 1.59881 255 0 255
-3.5068 -0.0491546 1.77559 255 0 255
-4.0607 2.20022e-008 2.02473 255 0 255
